<?xml version="1.0" encoding="utf-8"?>
<!-- Generator: Adobe Illustrator 15.0.0, SVG Export Plug-In . SVG Version: 6.00 Build 0)  -->
<!DOCTYPE svg PUBLIC "-//W3C//DTD SVG 1.1//EN" "http://www.w3.org/Graphics/SVG/1.1/DTD/svg11.dtd">
<svg version="1.1" id="Layer_1" xmlns="http://www.w3.org/2000/svg" xmlns:xlink="http://www.w3.org/1999/xlink" x="0px" y="0px"
	 width="640px" height="1136px" viewBox="0 0 640 1136" enable-background="new 0 0 640 1136" xml:space="preserve">
<g>
	<path fill="#FFFFFF" d="M606.574-232.229H40.354c-48.51,0-87.973,39.463-87.973,87.972v1405.113
		c0,48.523,39.463,87.987,87.973,87.987h566.221c48.502,0,87.973-39.464,87.973-87.987V-144.257
		C694.547-192.767,655.076-232.229,606.574-232.229z M642,1136H2V0h640V1136z"/>
	<path fill="#FFFFFF" d="M322.938-143.877c2.754,0,4.998-2.24,4.998-4.996c0-2.762-2.244-5.01-4.998-5.01s-5,2.248-5,5.01
		C317.938-146.117,320.184-143.877,322.938-143.877"/>
	<path fill="#C6CACC" d="M606.654-239.5h-24.148v-1.112c0-3.003-2.443-5.445-5.439-5.445H469.652c-3.002,0-5.439,2.442-5.439,5.445
		v1.112H40.434c-52.521,0-95.238,42.722-95.238,95.247V-6.81h-1.49c-2.875,0-5.213,2.336-5.213,5.205v68.042
		c0,2.872,2.338,5.205,5.213,5.205h1.49v59.269h-1.875c-2.875,0-5.225,2.343-5.225,5.216v47.148c0,2.873,2.35,5.205,5.225,5.205
		h1.875v52.308h-1.875c-2.875,0-5.225,2.333-5.225,5.204v47.148c0,2.873,2.35,5.217,5.225,5.217h1.875v962.512
		c0,52.513,42.717,95.243,95.238,95.243h566.221c52.52,0,95.25-42.73,95.25-95.243V-144.253
		C701.904-196.778,659.174-239.5,606.654-239.5 M694.633,1260.87c0,48.509-39.471,87.973-87.979,87.973H40.434
		c-48.504,0-87.967-39.464-87.967-87.973V-144.253c0-48.513,39.463-87.976,87.967-87.976h566.221
		c48.508,0,87.979,39.463,87.979,87.976V1260.87z"/>
	<g>
		<path fill="#C6CACC" d="M258.004-84.04h127.395c6.148,0,11.133-4.977,11.133-11.122c0-6.152-4.984-11.136-11.133-11.136H258.004
			c-6.148,0-11.117,4.984-11.117,11.136C246.887-89.017,251.855-84.04,258.004-84.04 M258.004-99.103h127.395
			c2.172,0,3.934,1.776,3.934,3.941c0,2.166-1.762,3.934-3.934,3.934H258.004c-2.164,0-3.934-1.768-3.934-3.934
			C254.07-97.327,255.84-99.103,258.004-99.103"/>
		<path fill="#C6CACC" d="M321.709-134.7c7.809,0,14.143-6.34,14.143-14.158c0-7.824-6.334-14.162-14.143-14.162
			c-7.811,0-14.158,6.337-14.158,14.162C307.551-141.04,313.898-134.7,321.709-134.7 M321.709-153.868
			c2.754,0,4.998,2.248,4.998,5.01c0,2.755-2.244,4.996-4.998,4.996c-2.756,0-5-2.24-5-4.996
			C316.709-151.62,318.953-153.868,321.709-153.868"/>
		<path fill="#C6CACC" d="M321.098,1164.178c-43.256,0-78.443,35.189-78.443,78.444c0,43.239,35.188,78.429,78.443,78.429
			c43.248,0,78.432-35.189,78.432-78.429C399.529,1199.367,364.346,1164.178,321.098,1164.178 M347.793,1256.936
			c0,6.832-5.559,12.383-12.365,12.383h-28.666c-6.822,0-12.377-5.565-12.377-12.383v-28.657c0-6.815,5.555-12.368,12.377-12.368
			h28.666c6.807,0,12.365,5.553,12.365,12.368V1256.936z"/>
		<path fill="#C6CACC" d="M335.428,1219.702H306.77c-4.729,0-8.578,3.848-8.578,8.576v28.657c0,4.729,3.85,8.577,8.578,8.577
			l28.658,0.016c4.713,0,8.568-3.85,8.568-8.593v-28.657C343.996,1223.55,340.141,1219.702,335.428,1219.702"/>
		<path fill="#FFFFFF" d="M335.42,1215.91h-28.65c-6.83,0-12.375,5.553-12.375,12.368v28.657c0,6.817,5.545,12.383,12.375,12.383
			h28.65c6.822,0,12.367-5.551,12.367-12.383v-28.657C347.787,1221.463,342.242,1215.91,335.42,1215.91 M343.988,1256.936
			c0,4.743-3.84,8.593-8.568,8.593l-28.65-0.016c-4.736,0-8.578-3.848-8.578-8.577v-28.657c0-4.729,3.842-8.576,8.578-8.576h28.65
			c4.729,0,8.568,3.848,8.568,8.576V1256.936z"/>
	</g>
</g>
<rect x="2" fill="none" stroke="#B3B4B4" stroke-width="2" width="640" height="1136"/>
</svg>
